<mxfile host="app.diagrams.net" modified="2024-02-20T10:24:15.153Z" agent="Mozilla/5.0 (Windows NT 10.0; Win64; x64) AppleWebKit/537.36 (KHTML, like Gecko) Chrome/120.0.0.0 Safari/537.36" etag="99VO32YMMOnwzxgxayw7" version="23.1.5" type="github">
  <diagram name="Page-1" id="z-6vE7O4wkj-nsitWIu_">
    <mxGraphModel dx="3371" dy="1973" grid="1" gridSize="10" guides="1" tooltips="1" connect="1" arrows="1" fold="1" page="1" pageScale="1" pageWidth="850" pageHeight="1100" math="0" shadow="0">
      <root>
        <mxCell id="0" />
        <mxCell id="1" parent="0" />
        <mxCell id="kr7OujZ9Wm1kmUmlCNf0-26" value="" style="ellipse;whiteSpace=wrap;html=1;fillColor=none;fillStyle=solid;strokeColor=#FF3333;gradientColor=none;opacity=60;strokeWidth=5;" vertex="1" parent="1">
          <mxGeometry x="-350" y="190" width="720" height="556.71" as="geometry" />
        </mxCell>
        <mxCell id="kr7OujZ9Wm1kmUmlCNf0-37" value="" style="ellipse;whiteSpace=wrap;html=1;fillStyle=solid;opacity=60;strokeWidth=5;fillColor=none;strokeColor=#FFB570;" vertex="1" parent="1">
          <mxGeometry x="60" y="306.69" width="210" height="150.81" as="geometry" />
        </mxCell>
        <mxCell id="kr7OujZ9Wm1kmUmlCNf0-31" value="" style="ellipse;whiteSpace=wrap;html=1;fillColor=none;fillStyle=solid;strokeColor=#3399FF;gradientColor=none;opacity=60;strokeWidth=5;rotation=-45;" vertex="1" parent="1">
          <mxGeometry x="-817.68" y="-92.68" width="680" height="483.35" as="geometry" />
        </mxCell>
        <mxCell id="kr7OujZ9Wm1kmUmlCNf0-13" value="Customer Training Data" style="swimlane;fontStyle=0;childLayout=stackLayout;horizontal=1;startSize=30;horizontalStack=0;resizeParent=1;resizeParentMax=0;resizeLast=0;collapsible=1;marginBottom=0;whiteSpace=wrap;html=1;" vertex="1" parent="1">
          <mxGeometry x="-500" y="20" width="140" height="150" as="geometry" />
        </mxCell>
        <mxCell id="kr7OujZ9Wm1kmUmlCNf0-14" value="2019-2023" style="text;strokeColor=none;fillColor=none;align=center;verticalAlign=middle;spacingLeft=4;spacingRight=4;overflow=hidden;points=[[0,0.5],[1,0.5]];portConstraint=eastwest;rotatable=0;whiteSpace=wrap;html=1;" vertex="1" parent="kr7OujZ9Wm1kmUmlCNf0-13">
          <mxGeometry y="30" width="140" height="20" as="geometry" />
        </mxCell>
        <mxCell id="kr7OujZ9Wm1kmUmlCNf0-15" value="&lt;div style=&quot;&quot;&gt;&lt;span style=&quot;background-color: initial;&quot;&gt;Randomly Sample 1000 Loyalty Customers&lt;/span&gt;&lt;/div&gt;" style="text;strokeColor=none;fillColor=none;align=center;verticalAlign=middle;spacingLeft=4;spacingRight=4;overflow=hidden;points=[[0,0.5],[1,0.5]];portConstraint=eastwest;rotatable=0;whiteSpace=wrap;html=1;" vertex="1" parent="kr7OujZ9Wm1kmUmlCNf0-13">
          <mxGeometry y="50" width="140" height="30" as="geometry" />
        </mxCell>
        <mxCell id="kr7OujZ9Wm1kmUmlCNf0-16" value="3/6/12 month transaction flag&lt;br&gt;&lt;div&gt;&lt;br&gt;&lt;/div&gt;&lt;div&gt;&lt;font style=&quot;font-size: 9px;&quot;&gt;sbx_dbrx_mktg.dbrx.lc_2n_cust&lt;/font&gt;&lt;br&gt;&lt;/div&gt;" style="text;strokeColor=none;fillColor=none;align=center;verticalAlign=middle;spacingLeft=4;spacingRight=4;overflow=hidden;points=[[0,0.5],[1,0.5]];portConstraint=eastwest;rotatable=0;whiteSpace=wrap;html=1;" vertex="1" parent="kr7OujZ9Wm1kmUmlCNf0-13">
          <mxGeometry y="80" width="140" height="70" as="geometry" />
        </mxCell>
        <mxCell id="kr7OujZ9Wm1kmUmlCNf0-17" value="Transactional Training Data" style="swimlane;fontStyle=0;childLayout=stackLayout;horizontal=1;startSize=30;horizontalStack=0;resizeParent=1;resizeParentMax=0;resizeLast=0;collapsible=1;marginBottom=0;whiteSpace=wrap;html=1;" vertex="1" parent="1">
          <mxGeometry x="-350" y="40" width="140" height="130" as="geometry" />
        </mxCell>
        <mxCell id="kr7OujZ9Wm1kmUmlCNf0-18" value="All transactions associated with the customer_id found in Customer Data&lt;br&gt;&lt;br&gt;&lt;p data-pm-slice=&quot;1 1 [&amp;quot;blockquote&amp;quot;,null]&quot;&gt;&lt;font style=&quot;font-size: 9px;&quot;&gt;sbx_dbrx_mktg.dbrx.lc_2n_trans&lt;/font&gt;&lt;/p&gt;" style="text;strokeColor=none;fillColor=none;align=center;verticalAlign=middle;spacingLeft=4;spacingRight=4;overflow=hidden;points=[[0,0.5],[1,0.5]];portConstraint=eastwest;rotatable=0;whiteSpace=wrap;html=1;" vertex="1" parent="kr7OujZ9Wm1kmUmlCNf0-17">
          <mxGeometry y="30" width="140" height="100" as="geometry" />
        </mxCell>
        <mxCell id="kr7OujZ9Wm1kmUmlCNf0-21" value="Training Data" style="swimlane;fontStyle=0;childLayout=stackLayout;horizontal=1;startSize=30;horizontalStack=0;resizeParent=1;resizeParentMax=0;resizeLast=0;collapsible=1;marginBottom=0;whiteSpace=wrap;html=1;" vertex="1" parent="1">
          <mxGeometry x="-230" y="306.68999999999994" width="240" height="140" as="geometry" />
        </mxCell>
        <mxCell id="kr7OujZ9Wm1kmUmlCNf0-22" value="&lt;b&gt;Features for training&lt;br&gt;customer_id and snapshot_date are unique rows of training data.&lt;br&gt;&lt;br&gt;Customer&#39;s can be repeated due to random sampling, but never on the same snapshot_date.&lt;/b&gt;" style="text;strokeColor=none;fillColor=none;align=center;verticalAlign=middle;spacingLeft=4;spacingRight=4;overflow=hidden;points=[[0,0.5],[1,0.5]];portConstraint=eastwest;rotatable=0;whiteSpace=wrap;html=1;" vertex="1" parent="kr7OujZ9Wm1kmUmlCNf0-21">
          <mxGeometry y="30" width="240" height="110" as="geometry" />
        </mxCell>
        <mxCell id="kr7OujZ9Wm1kmUmlCNf0-32" value="" style="shape=image;verticalLabelPosition=bottom;labelBackgroundColor=default;verticalAlign=top;aspect=fixed;imageAspect=0;image=https://miro.medium.com/v2/resize:fit:1088/1*L02Ojuxa39jZefsd2LkbXw.png;" vertex="1" parent="1">
          <mxGeometry x="-540" y="-157" width="298" height="156.67" as="geometry" />
        </mxCell>
        <mxCell id="kr7OujZ9Wm1kmUmlCNf0-33" value="" style="ellipse;whiteSpace=wrap;html=1;fillColor=none;fillStyle=solid;strokeColor=#3399FF;gradientColor=none;opacity=60;strokeWidth=5;" vertex="1" parent="1">
          <mxGeometry x="-20" y="510" width="280" height="170" as="geometry" />
        </mxCell>
        <mxCell id="kr7OujZ9Wm1kmUmlCNf0-34" value="" style="shape=image;verticalLabelPosition=bottom;labelBackgroundColor=default;verticalAlign=top;aspect=fixed;imageAspect=0;image=https://upload.wikimedia.org/wikipedia/commons/thumb/6/63/Databricks_Logo.png/800px-Databricks_Logo.png;" vertex="1" parent="1">
          <mxGeometry x="-110" y="185" width="235" height="123.38" as="geometry" />
        </mxCell>
        <mxCell id="kr7OujZ9Wm1kmUmlCNf0-35" value="" style="shape=image;verticalLabelPosition=bottom;labelBackgroundColor=default;verticalAlign=top;aspect=fixed;imageAspect=0;image=https://upload.wikimedia.org/wikipedia/commons/thumb/0/05/Scikit_learn_logo_small.svg/1200px-Scikit_learn_logo_small.svg.png;" vertex="1" parent="1">
          <mxGeometry x="110" y="317.5" width="110" height="59.21" as="geometry" />
        </mxCell>
        <mxCell id="kr7OujZ9Wm1kmUmlCNf0-36" value="" style="shape=image;verticalLabelPosition=bottom;labelBackgroundColor=default;verticalAlign=top;aspect=fixed;imageAspect=0;image=https://mlflow.org/docs/latest/_static/MLflow-logo-final-black.png;" vertex="1" parent="1">
          <mxGeometry x="55" y="526" width="130" height="47.66" as="geometry" />
        </mxCell>
        <mxCell id="kr7OujZ9Wm1kmUmlCNf0-38" value="&lt;font style=&quot;font-size: 16px;&quot;&gt;Model Training&lt;/font&gt;" style="text;html=1;align=center;verticalAlign=middle;whiteSpace=wrap;rounded=0;" vertex="1" parent="1">
          <mxGeometry x="120" y="385.9" width="100" height="60.79" as="geometry" />
        </mxCell>
        <mxCell id="kr7OujZ9Wm1kmUmlCNf0-39" value="&lt;font style=&quot;font-size: 16px;&quot;&gt;Store best performing models in Model Registry&lt;/font&gt;" style="text;html=1;align=center;verticalAlign=middle;whiteSpace=wrap;rounded=0;" vertex="1" parent="1">
          <mxGeometry x="35" y="590" width="170" height="60.79" as="geometry" />
        </mxCell>
        <mxCell id="kr7OujZ9Wm1kmUmlCNf0-40" value="Live Customer Data" style="swimlane;fontStyle=0;childLayout=stackLayout;horizontal=1;startSize=30;horizontalStack=0;resizeParent=1;resizeParentMax=0;resizeLast=0;collapsible=1;marginBottom=0;whiteSpace=wrap;html=1;" vertex="1" parent="1">
          <mxGeometry x="-680" y="216.71000000000004" width="140" height="160" as="geometry" />
        </mxCell>
        <mxCell id="kr7OujZ9Wm1kmUmlCNf0-42" value="&lt;div style=&quot;&quot;&gt;Current data on every loyalty customer as of today&lt;/div&gt;&lt;div style=&quot;&quot;&gt;&lt;br&gt;&lt;/div&gt;&lt;div style=&quot;&quot;&gt;&lt;br&gt;&lt;/div&gt;&lt;div style=&quot;&quot;&gt;This table has the exact same features as the Customer Training Data&lt;/div&gt;" style="text;strokeColor=none;fillColor=none;align=center;verticalAlign=middle;spacingLeft=4;spacingRight=4;overflow=hidden;points=[[0,0.5],[1,0.5]];portConstraint=eastwest;rotatable=0;whiteSpace=wrap;html=1;" vertex="1" parent="kr7OujZ9Wm1kmUmlCNf0-40">
          <mxGeometry y="30" width="140" height="130" as="geometry" />
        </mxCell>
        <mxCell id="kr7OujZ9Wm1kmUmlCNf0-44" value="Live Transactional Data" style="swimlane;fontStyle=0;childLayout=stackLayout;horizontal=1;startSize=30;horizontalStack=0;resizeParent=1;resizeParentMax=0;resizeLast=0;collapsible=1;marginBottom=0;whiteSpace=wrap;html=1;" vertex="1" parent="1">
          <mxGeometry x="-530" y="216.71" width="140" height="160" as="geometry" />
        </mxCell>
        <mxCell id="kr7OujZ9Wm1kmUmlCNf0-45" value="&lt;div style=&quot;border-color: var(--border-color);&quot;&gt;Current transactional data on every loyalty customer as of today&lt;/div&gt;&lt;div style=&quot;border-color: var(--border-color);&quot;&gt;&lt;br style=&quot;border-color: var(--border-color);&quot;&gt;&lt;/div&gt;&lt;div style=&quot;border-color: var(--border-color);&quot;&gt;&lt;br style=&quot;border-color: var(--border-color);&quot;&gt;&lt;/div&gt;&lt;div style=&quot;border-color: var(--border-color);&quot;&gt;This table has the exact same features as the Transactional Training Data&lt;/div&gt;" style="text;strokeColor=none;fillColor=none;align=center;verticalAlign=middle;spacingLeft=4;spacingRight=4;overflow=hidden;points=[[0,0.5],[1,0.5]];portConstraint=eastwest;rotatable=0;whiteSpace=wrap;html=1;" vertex="1" parent="kr7OujZ9Wm1kmUmlCNf0-44">
          <mxGeometry y="30" width="140" height="130" as="geometry" />
        </mxCell>
        <mxCell id="kr7OujZ9Wm1kmUmlCNf0-46" value="Live Inference Table" style="swimlane;fontStyle=0;childLayout=stackLayout;horizontal=1;startSize=30;horizontalStack=0;resizeParent=1;resizeParentMax=0;resizeLast=0;collapsible=1;marginBottom=0;whiteSpace=wrap;html=1;" vertex="1" parent="1">
          <mxGeometry x="-290" y="457.4999999999999" width="240" height="140" as="geometry" />
        </mxCell>
        <mxCell id="kr7OujZ9Wm1kmUmlCNf0-47" value="&lt;b&gt;Customer and Transactional Tables combined to create a profile of each loyalty customer.&lt;br&gt;&lt;br&gt;The features in this table will be the same as the features found in the training data table.&lt;br&gt;&lt;/b&gt;" style="text;strokeColor=none;fillColor=none;align=center;verticalAlign=middle;spacingLeft=4;spacingRight=4;overflow=hidden;points=[[0,0.5],[1,0.5]];portConstraint=eastwest;rotatable=0;whiteSpace=wrap;html=1;" vertex="1" parent="kr7OujZ9Wm1kmUmlCNf0-46">
          <mxGeometry y="30" width="240" height="110" as="geometry" />
        </mxCell>
        <mxCell id="kr7OujZ9Wm1kmUmlCNf0-48" value="" style="endArrow=classic;html=1;rounded=0;exitX=0.529;exitY=1;exitDx=0;exitDy=0;entryX=0;entryY=0.5;entryDx=0;entryDy=0;exitPerimeter=0;strokeColor=#00CC00;" edge="1" parent="1" source="kr7OujZ9Wm1kmUmlCNf0-18" target="kr7OujZ9Wm1kmUmlCNf0-22">
          <mxGeometry width="50" height="50" relative="1" as="geometry">
            <mxPoint x="-210" y="350" as="sourcePoint" />
            <mxPoint x="-160" y="300" as="targetPoint" />
          </mxGeometry>
        </mxCell>
        <mxCell id="kr7OujZ9Wm1kmUmlCNf0-49" value="" style="endArrow=classic;html=1;rounded=0;exitX=0.543;exitY=1.014;exitDx=0;exitDy=0;entryX=0;entryY=0.5;entryDx=0;entryDy=0;exitPerimeter=0;strokeColor=#00CC00;" edge="1" parent="1" source="kr7OujZ9Wm1kmUmlCNf0-16" target="kr7OujZ9Wm1kmUmlCNf0-22">
          <mxGeometry width="50" height="50" relative="1" as="geometry">
            <mxPoint x="-275" y="180" as="sourcePoint" />
            <mxPoint x="-102" y="324" as="targetPoint" />
          </mxGeometry>
        </mxCell>
        <mxCell id="kr7OujZ9Wm1kmUmlCNf0-50" value="Predictions Table" style="swimlane;fontStyle=0;childLayout=stackLayout;horizontal=1;startSize=30;horizontalStack=0;resizeParent=1;resizeParentMax=0;resizeLast=0;collapsible=1;marginBottom=0;whiteSpace=wrap;html=1;" vertex="1" parent="1">
          <mxGeometry x="-680" y="25" width="140" height="160" as="geometry" />
        </mxCell>
        <mxCell id="kr7OujZ9Wm1kmUmlCNf0-51" value="&lt;div style=&quot;&quot;&gt;Current data on every loyalty customer as of today&lt;/div&gt;&lt;div style=&quot;&quot;&gt;&lt;br&gt;&lt;/div&gt;&lt;div style=&quot;&quot;&gt;&lt;br&gt;&lt;/div&gt;&lt;div style=&quot;&quot;&gt;This table has the exact same features as the Customer Training Data&lt;/div&gt;" style="text;strokeColor=none;fillColor=none;align=center;verticalAlign=middle;spacingLeft=4;spacingRight=4;overflow=hidden;points=[[0,0.5],[1,0.5]];portConstraint=eastwest;rotatable=0;whiteSpace=wrap;html=1;" vertex="1" parent="kr7OujZ9Wm1kmUmlCNf0-50">
          <mxGeometry y="30" width="140" height="130" as="geometry" />
        </mxCell>
        <mxCell id="kr7OujZ9Wm1kmUmlCNf0-52" value="" style="endArrow=classic;html=1;rounded=0;entryX=0.279;entryY=0.007;entryDx=0;entryDy=0;entryPerimeter=0;dashed=1;dashPattern=12 12;fillColor=#fff2cc;strokeColor=#FF0000;" edge="1" parent="1" source="kr7OujZ9Wm1kmUmlCNf0-45" target="kr7OujZ9Wm1kmUmlCNf0-46">
          <mxGeometry width="50" height="50" relative="1" as="geometry">
            <mxPoint x="-513" y="234" as="sourcePoint" />
            <mxPoint x="-120" y="407" as="targetPoint" />
          </mxGeometry>
        </mxCell>
        <mxCell id="kr7OujZ9Wm1kmUmlCNf0-53" value="" style="endArrow=classic;html=1;rounded=0;entryX=-0.004;entryY=0.064;entryDx=0;entryDy=0;entryPerimeter=0;exitX=0.471;exitY=1;exitDx=0;exitDy=0;exitPerimeter=0;dashed=1;dashPattern=12 12;fillColor=#fff2cc;strokeColor=#FF0000;" edge="1" parent="1" source="kr7OujZ9Wm1kmUmlCNf0-42" target="kr7OujZ9Wm1kmUmlCNf0-47">
          <mxGeometry width="50" height="50" relative="1" as="geometry">
            <mxPoint x="-575" y="244" as="sourcePoint" />
            <mxPoint x="-233" y="481" as="targetPoint" />
          </mxGeometry>
        </mxCell>
        <mxCell id="kr7OujZ9Wm1kmUmlCNf0-57" value="" style="curved=1;endArrow=classic;html=1;rounded=0;exitX=0.911;exitY=0.223;exitDx=0;exitDy=0;exitPerimeter=0;entryX=0.5;entryY=0;entryDx=0;entryDy=0;dashed=1;dashPattern=12 12;fillColor=#fff2cc;strokeColor=#FF0000;" edge="1" parent="1" source="kr7OujZ9Wm1kmUmlCNf0-33" target="kr7OujZ9Wm1kmUmlCNf0-50">
          <mxGeometry width="50" height="50" relative="1" as="geometry">
            <mxPoint x="380" y="266.71000000000004" as="sourcePoint" />
            <mxPoint x="430" y="216.71" as="targetPoint" />
            <Array as="points">
              <mxPoint x="400" y="210" />
              <mxPoint x="-230" />
              <mxPoint x="-330" y="-10" />
              <mxPoint x="-610" y="-30" />
            </Array>
          </mxGeometry>
        </mxCell>
        <mxCell id="kr7OujZ9Wm1kmUmlCNf0-58" value="" style="endArrow=classic;html=1;rounded=0;exitX=1;exitY=0.5;exitDx=0;exitDy=0;entryX=-0.014;entryY=0.566;entryDx=0;entryDy=0;entryPerimeter=0;strokeColor=#00CC00;" edge="1" parent="1" source="kr7OujZ9Wm1kmUmlCNf0-22" target="kr7OujZ9Wm1kmUmlCNf0-37">
          <mxGeometry width="50" height="50" relative="1" as="geometry">
            <mxPoint x="-70" y="380" as="sourcePoint" />
            <mxPoint x="-20" y="330" as="targetPoint" />
          </mxGeometry>
        </mxCell>
        <mxCell id="kr7OujZ9Wm1kmUmlCNf0-59" value="" style="endArrow=classic;html=1;rounded=0;exitX=0.5;exitY=1;exitDx=0;exitDy=0;entryX=0.689;entryY=0.045;entryDx=0;entryDy=0;entryPerimeter=0;strokeColor=#00CC00;" edge="1" parent="1" source="kr7OujZ9Wm1kmUmlCNf0-37" target="kr7OujZ9Wm1kmUmlCNf0-33">
          <mxGeometry width="50" height="50" relative="1" as="geometry">
            <mxPoint x="20" y="402" as="sourcePoint" />
            <mxPoint x="97" y="402" as="targetPoint" />
          </mxGeometry>
        </mxCell>
        <mxCell id="kr7OujZ9Wm1kmUmlCNf0-60" value="" style="endArrow=classic;html=1;rounded=0;entryX=0.022;entryY=0.66;entryDx=0;entryDy=0;entryPerimeter=0;exitX=0.513;exitY=1.009;exitDx=0;exitDy=0;exitPerimeter=0;dashed=1;dashPattern=12 12;fillColor=#fff2cc;strokeColor=#FF0000;" edge="1" parent="1" source="kr7OujZ9Wm1kmUmlCNf0-47" target="kr7OujZ9Wm1kmUmlCNf0-33">
          <mxGeometry width="50" height="50" relative="1" as="geometry">
            <mxPoint x="-210" y="610" as="sourcePoint" />
            <mxPoint x="93" y="740" as="targetPoint" />
          </mxGeometry>
        </mxCell>
        <mxCell id="kr7OujZ9Wm1kmUmlCNf0-61" style="edgeStyle=orthogonalEdgeStyle;rounded=0;orthogonalLoop=1;jettySize=auto;html=1;exitX=0;exitY=0;exitDx=0;exitDy=0;entryX=0.1;entryY=-0.084;entryDx=0;entryDy=0;entryPerimeter=0;" edge="1" parent="1" source="kr7OujZ9Wm1kmUmlCNf0-36" target="kr7OujZ9Wm1kmUmlCNf0-36">
          <mxGeometry relative="1" as="geometry" />
        </mxCell>
      </root>
    </mxGraphModel>
  </diagram>
</mxfile>
